name C:\Users\r0593348\3dpredictsim\Results\Batchsim_tmt_linear\Pog_s1_tmt_aCst_d05_k800_ig24_pas.mot
datacolumns 128
datarows 4
range 0.55277750 0.58594416
endheader
time	pelvis_tilt	pelvis_list	pelvis_rotation	pelvis_tx	pelvis_ty	pelvis_tz	hip_flexion_l	hip_adduction_l	hip_rotation_l	hip_flexion_r	hip_adduction_r	hip_rotation_r	knee_angle_l	knee_angle_r	ankle_angle_l	ankle_angle_r	subtalar_angle_l	subtalar_angle_r	tmt_angle_l	tmt_angle_r	mtp_angle_l	mtp_angle_r	lumbar_extension	lumbar_bending	lumbar_rotation	arm_flex_l	arm_add_l	arm_rot_l	arm_flex_r	arm_add_r	arm_rot_r	elbow_flex_l	elbow_flex_r	pro_sup_l	pro_sup_r	glut_med1_l/activation	glut_med2_l/activation	glut_med3_l/activation	glut_min1_l/activation	glut_min2_l/activation	glut_min3_l/activation	semimem_l/activation	semiten_l/activation	bifemlh_l/activation	bifemsh_l/activation	sar_l/activation	add_long_l/activation	add_brev_l/activation	add_mag1_l/activation	add_mag2_l/activation	add_mag3_l/activation	tfl_l/activation	pect_l/activation	grac_l/activation	glut_max1_l/activation	glut_max2_l/activation	glut_max3_l/activation	iliacus_l/activation	psoas_l/activation	quad_fem_l/activation	gem_l/activation	peri_l/activation	rect_fem_l/activation	vas_med_l/activation	vas_int_l/activation	vas_lat_l/activation	med_gas_l/activation	lat_gas_l/activation	soleus_l/activation	tib_post_l/activation	flex_dig_l/activation	flex_hal_l/activation	tib_ant_l/activation	per_brev_l/activation	per_long_l/activation	per_tert_l/activation	ext_dig_l/activation	ext_hal_l/activation	ercspn_l/activation	intobl_l/activation	extobl_l/activation	glut_med1_r/activation	glut_med2_r/activation	glut_med3_r/activation	glut_min1_r/activation	glut_min2_r/activation	glut_min3_r/activation	semimem_r/activation	semiten_r/activation	bifemlh_r/activation	bifemsh_r/activation	sar_r/activation	add_long_r/activation	add_brev_r/activation	add_mag1_r/activation	add_mag2_r/activation	add_mag3_r/activation	tfl_r/activation	pect_r/activation	grac_r/activation	glut_max1_r/activation	glut_max2_r/activation	glut_max3_r/activation	iliacus_r/activation	psoas_r/activation	quad_fem_r/activation	gem_r/activation	peri_r/activation	rect_fem_r/activation	vas_med_r/activation	vas_int_r/activation	vas_lat_r/activation	med_gas_r/activation	lat_gas_r/activation	soleus_r/activation	tib_post_r/activation	flex_dig_r/activation	flex_hal_r/activation	tib_ant_r/activation	per_brev_r/activation	per_long_r/activation	per_tert_r/activation	ext_dig_r/activation	ext_hal_r/activation	ercspn_r/activation	intobl_r/activation	extobl_r/activation	
          0.55277750	         -2.92291303	          2.52148473	         -6.28725930	          0.69097188	          0.85484020	          0.00306518	         31.90899523	          3.36888355	         -2.90675044	        -18.44824732	         -2.38890856	          7.49846727	        -15.57944718	         -8.67907978	          5.96997521	         -0.11467309	         -3.17925841	         11.86350495	          0.04077220	          1.25535225	         -0.10374845	         22.84744628	         -2.06482004	         -1.06945798	          2.10411270	         -9.80358607	        -13.52945000	         11.47098168	          8.91973773	        -13.47119206	         18.53051551	         11.20612113	         38.81734689	         86.51662706	         86.51662706	          0.05921291	          0.05921295	          0.05000013	          0.05921306	          0.05921304	          0.05921203	          0.05000091	          0.05000055	          0.28639346	          0.05000017	          0.05000042	          0.11420338	          0.24944420	          0.12762303	          0.13808589	          0.13550487	          0.05000016	          0.07009488	          0.05862109	          0.05000032	          0.05000028	          0.16067968	          0.05921293	          0.05319241	          0.32377628	          0.19779319	          0.13878045	          0.06354301	          0.20402399	          0.19805724	          0.17341482	          0.05000005	          0.05000005	          0.05000007	          0.05000001	          0.05000036	          0.05000029	          0.63513169	          0.36514466	          0.20457620	          0.41151689	          0.60325487	          0.32408161	          0.06056551	          0.08714549	          0.09126402	          0.24276097	          0.08532890	          0.05614155	          0.29331283	          0.19244275	          0.09407030	          0.05000284	          0.05000026	          0.05000021	          0.07416089	          0.09835901	          0.11988631	          0.13378313	          0.05005366	          0.05000564	          0.05000084	          0.28960837	          0.11644953	          0.05001755	          0.05000340	          0.05000168	          0.05000146	          0.35262818	          0.59307202	          0.05000106	          0.05000127	          0.05000026	          0.21589703	          0.11525696	          0.12156610	          0.05015434	          0.28724746	          0.38783135	          0.26503837	          0.24695650	          0.26891804	          0.34184219	          0.05000002	          0.06291519	          0.15489325	          0.05000011	          0.05000003	          0.05000013	          0.05000040	          0.05000176	          0.05000023	
          0.56383306	         -2.91153111	          2.62375955	         -6.54106807	          0.70804389	          0.85369019	          0.00283896	         31.22684221	          3.75713840	         -2.66382230	        -18.14410972	         -2.70301012	          7.29326372	        -15.81500700	        -10.96186281	          5.35024450	         -1.14784318	         -3.69067883	         12.91302066	          0.03552214	          1.17129111	         -0.07132897	         23.83394101	         -1.83605229	         -1.31467128	          2.19140979	        -10.99361326	        -13.52784604	         11.39473593	          8.60815817	        -13.49126370	         18.55499297	         11.20584940	         40.11719546	         86.51662706	         86.51662706	          0.05000003	          0.05000013	          0.13897842	          0.05000013	          0.05000013	          0.05000015	          0.05000009	          0.05000020	          0.24183348	          0.05000013	          0.05000186	          0.09643459	          0.21063331	          0.32664273	          0.22711243	          0.14356470	          0.05000117	          0.05919344	          0.07546964	          0.10524325	          0.11621118	          0.13567974	          0.05000028	          0.05000667	          0.40334432	          0.16701856	          0.11718763	          0.05921328	          0.20810568	          0.22449969	          0.18574401	          0.05000040	          0.05002573	          0.05000003	          0.05921297	          0.07012460	          0.07012345	          0.54070063	          0.38732081	          0.23378051	          0.34748902	          0.57411302	          0.27365776	          0.05114212	          0.07358651	          0.07706424	          0.20498980	          0.07205258	          0.05920880	          0.24767634	          0.16250060	          0.07943393	          0.05000318	          0.05000038	          0.05000070	          0.06262220	          0.08305547	          0.20961551	          0.23573189	          0.06476497	          0.05921395	          0.05921348	          0.24454835	          0.09833633	          0.05000190	          0.05001909	          0.05003916	          0.05921230	          0.29776274	          0.54138024	          0.05921285	          0.05921263	          0.05000164	          0.18230560	          0.13792712	          0.13792729	          0.13792715	          0.24255457	          0.32748859	          0.22380099	          0.20853254	          0.22707723	          0.28865502	          0.05000001	          0.05312628	          0.15116458	          0.05000008	          0.05000003	          0.05000010	          0.06677086	          0.05921298	          0.05000011	
          0.57488861	         -2.89625110	          2.72375192	         -6.76136552	          0.72531477	          0.85251561	          0.00261905	         30.37290064	          4.08023255	         -2.37869755	        -17.73621567	         -2.99674883	          7.07316937	        -16.28229255	        -13.40521772	          4.92093487	         -2.35393339	         -4.23699798	         13.87980874	         -0.02089896	          1.06261947	         -0.19700719	         24.58883930	         -1.59328344	         -1.56104090	          2.26796323	        -12.16420356	        -13.53157373	         11.37252437	          8.21651660	        -13.51299751	         18.51184354	         11.22596875	         41.37578907	         86.51662706	         86.51662706	          0.27393931	          0.29240401	          0.37399630	          0.36397004	          0.21707793	          0.19003895	          0.07608301	          0.08659873	          0.20420659	          0.07107639	          0.05000457	          0.08143038	          0.17786089	          0.27582046	          0.19177620	          0.15780595	          0.05000027	          0.05000537	          0.06373288	          0.22478168	          0.18205357	          0.13376088	          0.05000035	          0.05000018	          0.34058798	          0.14103229	          0.23901417	          0.05000031	          0.17572669	          0.19577450	          0.15684435	          0.05000073	          0.05000045	          0.05083920	          0.05000003	          0.05921400	          0.05921304	          0.59799963	          0.40063377	          0.19740710	          0.62435368	          0.65097722	          0.30942259	          0.07190293	          0.08304647	          0.06507380	          0.27719419	          0.06084192	          0.05000003	          0.34422309	          0.13721718	          0.06707483	          0.06636642	          0.05000017	          0.05000011	          0.05287891	          0.07013329	          0.17700156	          0.19905447	          0.05468829	          0.05000115	          0.05000062	          0.27086550	          0.08304217	          0.05000064	          0.05000078	          0.05000043	          0.05000028	          0.25143387	          0.49932943	          0.05000006	          0.05000030	          0.05000011	          0.15394064	          0.11646705	          0.11646719	          0.11646707	          0.20481545	          0.27653458	          0.18897974	          0.17608695	          0.19174635	          0.24374321	          0.05000397	          0.10433520	          0.16974705	          0.05000032	          0.14530096	          0.05000090	          0.08270855	          0.05000003	          0.05000006	
          0.58594416	         -2.87909157	          2.81259901	         -6.94182994	          0.74254092	          0.85136501	          0.00236438	         29.45457107	          4.38929080	         -2.10011284	        -17.20122398	         -3.26116931	          6.84974167	        -16.70793780	        -16.01971256	          4.63340097	         -3.62788003	         -4.80981734	         14.76115371	         -0.02403297	          0.88067108	         -0.20073115	         24.89008372	         -1.35973393	         -1.79765535	          2.33355108	        -13.25584553	        -13.53429684	         11.41924459	          7.79149073	        -13.54096311	         18.43000740	         11.22577022	         42.55494081	         86.51662706	         86.51662706	          0.40501404	          0.46151811	          0.53679768	          0.30734386	          0.28405764	          0.43105423	          0.07761739	          0.12035532	          0.17243407	          0.06001804	          0.05000031	          0.06876070	          0.15018763	          0.23290822	          0.23764651	          0.18651111	          0.05000024	          0.05008815	          0.12227781	          0.30977032	          0.23536720	          0.18676451	          0.05000011	          0.05000010	          0.28759590	          0.11908917	          0.26795114	          0.05000003	          0.23621590	          0.27149858	          0.21352467	          0.05000001	          0.05000004	          0.05000000	          0.05000002	          0.05000099	          0.05000023	          0.73317479	          0.33829909	          0.16669250	          0.59705811	          0.65229732	          0.45394910	          0.09615474	          0.07012526	          0.05494897	          0.23406554	          0.05137557	          0.05000010	          0.29066544	          0.11586760	          0.05663873	          0.09124599	          0.05000030	          0.05000047	          0.05000007	          0.05922137	          0.20120686	          0.24315957	          0.05000092	          0.05043505	          0.11658525	          0.22872215	          0.07012203	          0.05000048	          0.05000392	          0.05000293	          0.05000270	          0.21231324	          0.43241605	          0.05000019	          0.05000079	          0.05000016	          0.12998899	          0.09834613	          0.09834619	          0.09834606	          0.17294817	          0.23350851	          0.15957634	          0.14868959	          0.16191265	          0.20581928	          0.16187533	          0.12544752	          0.14333631	          0.23457323	          0.24148960	          0.11238245	          0.11054116	          0.05000002	          0.05000003	
